<?xml version="1.0" encoding="UTF-8" standalone="no"?>
<svg xmlns="http://www.w3.org/2000/svg" version="1.1" viewBox="0 0 120 120" height="120" width="120"><circle r="60" cy="60" cx="60" style="fill:#e3e3e8" /><circle style="fill:#24394a" cx="60" cy="60" r="58" /><path style="fill:#577574" d="M 70.845295,70.363828 A 14.999998,49.999998 45 0 0 71.412779,69.787779 13.5,47.499999 45 0 1 29.239132,92.877884 13.5,47.499999 45 0 1 53.280756,49.74437 13.5,47.499999 45 0 1 95.85633,25.241469 14.999998,49.999998 45 0 0 95.353619,24.642082 14.999998,49.999998 45 0 0 49.391679,49.390821 14.999998,49.999998 45 0 0 24.642943,95.352764 14.999998,49.999998 45 0 0 70.604886,70.604028 14.999998,49.999998 45 0 0 70.845189,70.363726 Z" /><path style="fill:#577574" d="m 55.789785,45.59647 a 14.999998,49.999998 75 0 0 -0.779479,0.215131 13.5,47.499999 75 0 1 48.068504,1.090205 13.5,47.499999 75 0 1 -42.38742,25.333909 13.5,47.499999 75 0 1 -49.122977,-0.06765 14.999998,49.999998 75 0 0 0.135666,0.770442 14.999998,49.999998 75 0 0 52.178581,1.547932 14.999998,49.999998 75 0 0 44.414,-27.429842 14.999998,49.999998 75 0 0 -52.178574,-1.547936 14.999998,49.999998 75 0 0 -0.328252,0.08795 z" /><path style="fill:#577574" d="M 63.553686,45.425624 A 49.999998,14.999998 15 0 0 62.771075,45.222172 47.499999,13.5 15 0 1 103.85452,70.200568 47.499999,13.5 15 0 1 54.478984,70.946665 47.499999,13.5 15 0 1 11.971068,46.326588 49.999998,14.999998 15 0 0 11.703326,47.061638 49.999998,14.999998 15 0 0 56.117334,74.49148 49.999998,14.999998 15 0 0 108.29591,72.943541 49.999998,14.999998 15 0 0 63.881908,45.513699 49.999998,14.999998 15 0 0 63.553656,45.425749 Z" /><path style="fill:#577574" d="M 70.845295,49.636173 A 49.999998,14.999998 45 0 1 71.412779,50.212222 47.499999,13.5 45 0 0 29.239132,27.122115 47.499999,13.5 45 0 0 53.280756,70.255632 47.499999,13.5 45 0 0 95.85633,94.758532 49.999998,14.999998 45 0 1 95.353619,95.35792 49.999998,14.999998 45 0 1 49.391679,70.60918 49.999998,14.999998 45 0 1 24.642943,24.647236 49.999998,14.999998 45 0 1 70.604886,49.395973 49.999998,14.999998 45 0 1 70.845189,49.636275 Z" /><path style="fill:#e3e3e8" d="M 55.789021,74.403531 A 49.999998,14.999998 15 0 1 55.009543,74.1884 47.499999,13.5 15 0 0 103.07804,73.098195 47.499999,13.5 15 0 0 60.690626,47.764287 a 47.499999,13.5 15 0 0 -49.122977,0.06765 49.999998,14.999998 15 0 1 0.135685,-0.770442 49.999998,14.999998 15 0 1 52.178582,-1.547932 49.999998,14.999998 15 0 1 44.414004,27.429843 49.999998,14.999998 15 0 1 -52.178579,1.547935 49.999998,14.999998 15 0 1 -0.328252,-0.08795 z" /><path style="fill:#e3e3e8" d="M 63.55445,74.574377 A 14.999998,49.999998 75 0 1 62.771838,74.777829 13.5,47.499999 75 0 0 103.85528,49.799434 13.5,47.499999 75 0 0 54.479747,49.053336 13.5,47.499999 75 0 0 11.971832,73.673413 14.999998,49.999998 75 0 1 11.70409,72.938363 14.999998,49.999998 75 0 1 56.118097,45.508521 14.999998,49.999998 75 0 1 108.29668,47.05646 14.999998,49.999998 75 0 1 63.882672,74.486303 14.999998,49.999998 75 0 1 63.55442,74.574252 Z" /><path style="fill:#e3e3e8" d="M 49.154707,70.36898 A 49.999998,14.999998 45 0 1 48.587222,69.792931 47.499999,13.5 45 0 0 90.760869,92.883036 47.499999,13.5 45 0 0 66.719245,49.749521 47.499999,13.5 45 0 0 24.143671,25.246621 49.999998,14.999998 45 0 1 24.646382,24.647233 49.999998,14.999998 45 0 1 70.608322,49.395973 49.999998,14.999998 45 0 1 95.357058,95.357916 49.999998,14.999998 45 0 1 49.395115,70.60918 49.999998,14.999998 45 0 1 49.154813,70.368878 Z" /><path style="fill:#e3e3e8" d="M 49.154707,49.631022 A 14.999998,49.999998 45 0 0 48.587222,50.207071 13.5,47.499999 45 0 1 90.760869,27.116965 13.5,47.499999 45 0 1 66.719245,70.25048 13.5,47.499999 45 0 1 24.143671,94.753381 14.999998,49.999998 45 0 0 24.646383,95.352768 14.999998,49.999998 45 0 0 70.608322,70.604028 14.999998,49.999998 45 0 0 95.357058,24.642085 14.999998,49.999998 45 0 0 49.395115,49.390821 14.999998,49.999998 45 0 0 49.154813,49.631124 Z" /><ellipse style="fill:#e3e3e8" cx="60" cy="60" rx="2.5" ry="50" /><path style="fill:#577574" d="M 60.000001,10 A 2.4999999,49.999998 0 0 0 57.499998,60.000001 2.4999999,49.999998 0 0 0 60.000001,110 Z" /></svg>
